<?xml version="1.0" encoding="UTF-8"?>
<svg id="Layer_1" xmlns="http://www.w3.org/2000/svg" baseProfile="tiny" version="1.2" viewBox="0 0 870 300">
  <!-- Generator: Adobe Illustrator 29.1.0, SVG Export Plug-In . SVG Version: 2.1.0 Build 142)  -->
  <g>
    <path d="M128.9,174.1l14-48.2,13.5-53.5h1.7l13.5,53.5,13.8,48.2h-56.5ZM219.7,295.3h93.9L215.3,9.2h-114.8L1,295.3h93.9l16.6-59.4h91.5l16.7,59.4Z" fill="#fff"/>
    <path d="M863.4,14.1s-26.8-13.1-81.7-13.1-167.1,24.8-167.1,147.2,101.3,150.8,175.4,150.8,63.6-9,78.4-15.1l-13.8-57.6c-11.4,5.3-31.5,10.2-57.8,10.2s-91.8-10-91.8-88.2,61.7-84.6,83.7-84.6,44,4.2,59,12.4l15.5-61.9Z" fill="#fff"/>
    <path d="M566.6,16.5S533.4,1,474.7,1s-164.9,22.8-164.9,148.1,102.3,149.3,166.7,149.3,80.1-6.6,100.5-14.2V115.6l-70,17.6-4.7,45.3v57.7c-7.2,1.8-16.7,2.5-30,2.5-20,0-76.1-9.9-76.1-89.6s55.7-85.2,84.7-85.2,52.9,5.5,70.1,14.3l15.6-61.8Z" fill="#fff"/>
  </g>
  <path d="M445.8,178.5h56.4l74.7-62.8h-131.1v62.8Z" fill="#fff"/>
</svg>