<?xml version="1.0" encoding="UTF-8"?>
<!-- Created with Inkscape (http://www.inkscape.org/) -->
<svg width="870" height="300" version="1.1" viewBox="0 0 870 300" xml:space="preserve" xmlns="http://www.w3.org/2000/svg"><g transform="matrix(1.3333333,0,0,-1.3333333,-89.23941,1259.4551)"><g transform="matrix(5.6628012,0,0,5.6628012,-315.57634,-4400.9449)"><g fill="#00428e"><path d="m84.620561 920.91651 1.86 6.378 1.788 7.09h0.225l1.787-7.09 1.825-6.378zm12.023-16.05h12.434999l-13.009999 37.883h-15.206l-13.183-37.883h12.439l2.195 7.871h12.117z"/><path d="m181.89536 942.10931s-3.544 1.732-10.819 1.732-22.126-3.282-22.126-19.494c0-15.65 13.422-19.974 23.23-19.974 4.847 0 8.422 1.186 10.379 2.003l-1.824 7.633c-1.51-0.699-4.167-1.346-7.652-1.346-4.135 0-12.152 1.321-12.152 11.684s8.169 11.21 11.086 11.21c2.916 0 5.833-0.556 7.819-1.648z"/><path d="m142.58486 941.79441s-4.397 2.047-12.167 2.047c-7.15 0-21.844-3.025-21.844-19.615 0-16.123 13.547-19.78 22.074-19.78 6.167 0 10.606 0.869 13.317 1.88v22.335l-9.27196-2.32836-0.62904-5.99464v-7.639c-0.952-0.236-2.217-0.336-3.975-0.336-2.645 0-10.077 1.311-10.077 11.863 0 10.112 7.374 11.279 11.221 11.279 3.261 0 7.003-0.735 9.282-1.89z"/></g><path d="m126.59646 920.33871h7.468l9.9 8.323h-17.368z" fill="#e73356"/></g></g></svg>
